<svg xmlns="http://www.w3.org/2000/svg" viewBox="0 0 600 160" width="600" height="160" role="img" aria-label="Colomba — Schweizer KI-Telefonrezeption">
  <defs><linearGradient id="gl" x1="0" y1="0" x2="1" y2="1"><stop offset="0" stop-color="#A8B8A3"/><stop offset="1" stop-color="#C89B7B"/></linearGradient></defs>
  <circle cx="80" cy="80" r="72" fill="url(#gl)"/>
  <g fill="#FFFFFF"><path transform="translate(49.19 112.00) scale(0.047000 -0.047000)" d="M1258 440Q1250 341 1206.0 255.0Q1162 169 1088.5 105.0Q1015 41 917.0 5.5Q819 -30 704 -30Q500 -30 352.5 58.5Q205 147 125.0 306.0Q45 465 45 678Q45 843 94.5 980.5Q144 1118 234.5 1217.5Q325 1317 451.0 1371.5Q577 1426 730 1426Q822 1426 886.0 1406.5Q950 1387 986.5 1367.0Q1023 1347 1031 1347Q1045 1347 1072.0 1366.5Q1099 1386 1125.0 1405.5Q1151 1425 1157 1425Q1162 1425 1165.5 1421.5Q1169 1418 1171 1408L1264 991Q1266 982 1264.5 977.0Q1263 972 1256 970Q1249 969 1244.5 973.0Q1240 977 1236 987Q1179 1137 1109.5 1225.5Q1040 1314 964.0 1353.0Q888 1392 810 1392Q730 1392 661.0 1353.0Q592 1314 539.0 1238.0Q486 1162 457.0 1051.0Q428 940 428 795Q428 563 485.5 411.5Q543 260 644.0 185.5Q745 111 877 111Q1015 111 1114.0 195.5Q1213 280 1243 442Q1245 448 1246.5 451.0Q1248 454 1252 454Q1256 454 1257.5 449.5Q1259 445 1258 440Z"/></g>
  <g fill="#2D3A35">
    <path transform="translate(182.00 103.00) scale(0.037000 -0.037000)" d="M1258 440Q1250 341 1206.0 255.0Q1162 169 1088.5 105.0Q1015 41 917.0 5.5Q819 -30 704 -30Q500 -30 352.5 58.5Q205 147 125.0 306.0Q45 465 45 678Q45 843 94.5 980.5Q144 1118 234.5 1217.5Q325 1317 451.0 1371.5Q577 1426 730 1426Q822 1426 886.0 1406.5Q950 1387 986.5 1367.0Q1023 1347 1031 1347Q1045 1347 1072.0 1366.5Q1099 1386 1125.0 1405.5Q1151 1425 1157 1425Q1162 1425 1165.5 1421.5Q1169 1418 1171 1408L1264 991Q1266 982 1264.5 977.0Q1263 972 1256 970Q1249 969 1244.5 973.0Q1240 977 1236 987Q1179 1137 1109.5 1225.5Q1040 1314 964.0 1353.0Q888 1392 810 1392Q730 1392 661.0 1353.0Q592 1314 539.0 1238.0Q486 1162 457.0 1051.0Q428 940 428 795Q428 563 485.5 411.5Q543 260 644.0 185.5Q745 111 877 111Q1015 111 1114.0 195.5Q1213 280 1243 442Q1245 448 1246.5 451.0Q1248 454 1252 454Q1256 454 1257.5 449.5Q1259 445 1258 440Z"/>
    <path transform="translate(228.06 103.00) scale(0.037000 -0.037000)" d="M517 907Q654 907 760.0 847.5Q866 788 926.0 682.5Q986 577 986 440Q986 304 924.0 200.5Q862 97 753.0 38.5Q644 -20 503 -20Q366 -20 260.5 38.5Q155 97 95.0 200.5Q35 304 35 440Q35 575 97.5 680.5Q160 786 268.5 846.5Q377 907 517 907ZM570 -2Q619 4 647.5 56.5Q676 109 682.5 210.0Q689 311 669 461Q649 611 618.0 707.5Q587 804 545.5 848.5Q504 893 453 887Q404 880 375.5 827.0Q347 774 342.0 674.0Q337 574 356 425Q375 276 406.5 179.5Q438 83 479.5 38.0Q521 -7 570 -2Z"/>
    <path transform="translate(263.84 103.00) scale(0.037000 -0.037000)" d="M422 1484V60Q422 45 428.0 36.5Q434 28 446 25L493 16Q499 15 501.5 12.5Q504 10 504 7Q504 4 501.5 2.0Q499 0 495 0H48Q45 0 42.5 2.0Q40 4 40 7Q40 10 42.5 12.5Q45 15 52 16L98 25Q112 28 117.0 36.5Q122 45 122 59V1370Q122 1377 118.5 1380.5Q115 1384 107 1384H55Q49 1384 46.5 1386.5Q44 1389 44 1392Q44 1396 47.0 1397.5Q50 1399 54 1400L386 1493Q397 1496 401.0 1496.5Q405 1497 410 1497Q416 1497 419.0 1493.5Q422 1490 422 1484Z"/>
    <path transform="translate(281.49 103.00) scale(0.037000 -0.037000)" d="M517 907Q654 907 760.0 847.5Q866 788 926.0 682.5Q986 577 986 440Q986 304 924.0 200.5Q862 97 753.0 38.5Q644 -20 503 -20Q366 -20 260.5 38.5Q155 97 95.0 200.5Q35 304 35 440Q35 575 97.5 680.5Q160 786 268.5 846.5Q377 907 517 907ZM570 -2Q619 4 647.5 56.5Q676 109 682.5 210.0Q689 311 669 461Q649 611 618.0 707.5Q587 804 545.5 848.5Q504 893 453 887Q404 880 375.5 827.0Q347 774 342.0 674.0Q337 574 356 425Q375 276 406.5 179.5Q438 83 479.5 38.0Q521 -7 570 -2Z"/>
    <path transform="translate(317.26 103.00) scale(0.037000 -0.037000)" d="M412 894V58Q412 46 419.0 36.0Q426 26 438 23L484 15Q494 13 494 7Q494 0 483 0H40Q35 0 32.5 2.5Q30 5 30 7Q30 10 33.5 12.5Q37 15 42 16L88 25Q102 28 107.0 35.5Q112 43 112 54V777Q112 785 109.0 790.0Q106 795 98 795H42Q38 795 35.5 797.0Q33 799 33 802Q33 805 35.5 807.5Q38 810 44 811L377 904Q385 907 390.0 907.5Q395 908 400 908Q407 908 409.5 903.5Q412 899 412 894ZM388 682 376 692 413 727Q518 826 607.0 866.5Q696 907 767 907Q862 907 922.0 848.5Q982 790 982 662V51Q982 38 987.5 31.5Q993 25 1004 22L1036 16Q1047 13 1047 7Q1047 0 1033 0H616Q608 0 608 7Q608 13 618 15L656 22Q674 26 680.0 38.5Q686 51 686 69V630Q686 698 652.0 736.5Q618 775 565 775Q524 775 490.0 760.5Q456 746 423 715ZM956 682 944 692 976 732Q1048 820 1123.0 863.5Q1198 907 1278 907Q1369 907 1431.5 848.5Q1494 790 1508 661L1580 54Q1582 39 1588.0 31.5Q1594 24 1605 21L1636 14Q1640 14 1642.5 12.0Q1645 10 1645 7Q1645 4 1642.5 2.0Q1640 0 1636 0H1200Q1192 0 1192 7Q1192 13 1202 15L1239 22Q1258 26 1265.0 39.5Q1272 53 1270 72L1213 630Q1205 698 1175.5 736.5Q1146 775 1093 775Q1063 775 1037.0 760.5Q1011 746 986 720Z"/>
    <path transform="translate(376.09 103.00) scale(0.037000 -0.037000)" d="M386 1484V60L118 -11Q113 -12 108.0 -13.5Q103 -15 98 -15Q93 -15 89.5 -12.0Q86 -9 86 -4V1370Q86 1377 82.5 1380.5Q79 1384 71 1384H19Q13 1384 10.5 1386.5Q8 1389 8 1392Q8 1396 11.0 1397.5Q14 1399 18 1400L350 1493Q361 1496 365.0 1496.5Q369 1497 374 1497Q380 1497 383.0 1493.5Q386 1490 386 1484ZM367 735 354 750Q418 833 485.0 870.0Q552 907 638 907Q750 907 834.0 855.0Q918 803 965.0 705.5Q1012 608 1012 472Q1012 324 957.5 213.0Q903 102 807.0 41.0Q711 -20 587 -20Q492 -20 434.0 13.0Q376 46 341 110L363 120Q385 71 422.0 45.0Q459 19 510 19Q567 19 611.0 57.0Q655 95 680.5 188.5Q706 282 706 446Q706 591 685.0 679.5Q664 768 626.5 808.0Q589 848 539 848Q495 848 450.5 820.5Q406 793 367 735Z"/>
    <path transform="translate(413.02 103.00) scale(0.037000 -0.037000)" d="M551 93V104L537 91V778Q537 832 513.0 861.5Q489 891 447 891Q399 891 373.5 865.0Q348 839 348 801V708Q348 649 305.0 606.5Q262 564 193 564Q146 564 115.5 591.5Q85 619 85 675Q85 729 130.0 782.5Q175 836 264.0 871.5Q353 907 484 907Q662 907 750.5 835.5Q839 764 839 632V125Q839 96 850.5 82.0Q862 68 878 68Q894 68 908.5 79.5Q923 91 927 119Q928 123 929.5 124.5Q931 126 932 126Q935 126 936.5 124.5Q938 123 938 119Q938 98 917.5 65.5Q897 33 850.5 7.0Q804 -19 724 -19Q632 -19 591.5 13.5Q551 46 551 93ZM32 197Q32 312 127.5 379.5Q223 447 439 447Q492 447 524.5 436.0Q557 425 585 408L576 400Q547 415 519.0 422.0Q491 429 455 429Q395 429 362.0 381.0Q329 333 329 240Q329 151 362.0 108.0Q395 65 447 65Q479 65 511.5 83.0Q544 101 564 132L577 125Q535 55 458.0 18.0Q381 -19 292 -19Q178 -19 105.0 41.5Q32 102 32 197Z"/>
  </g>
  <g fill="#7C8A7E">
    <path transform="translate(184.00 126.00) scale(0.006104 -0.006104)" d="M681 -22Q502 -22 369.5 33.0Q237 88 163.0 196.0Q89 304 85 462H382Q388 387 427.0 336.5Q466 286 531.0 261.0Q596 236 678 236Q760 236 820.5 259.5Q881 283 915.0 326.0Q949 369 949 426Q949 477 918.5 511.5Q888 546 831.0 571.0Q774 596 692 615L528 656Q339 702 232.0 800.5Q125 899 125 1061Q125 1196 197.5 1297.0Q270 1398 396.5 1454.0Q523 1510 685 1510Q850 1510 973.0 1453.5Q1096 1397 1165.0 1296.5Q1234 1196 1236 1065H941Q933 1155 864.5 1204.0Q796 1253 682 1253Q605 1253 550.0 1231.0Q495 1209 466.0 1170.0Q437 1131 437 1081Q437 1026 470.5 989.5Q504 953 558.5 930.5Q613 908 676 893L811 860Q905 839 986.0 803.0Q1067 767 1128.0 714.5Q1189 662 1222.5 590.0Q1256 518 1256 424Q1256 289 1188.0 188.5Q1120 88 991.0 33.0Q862 -22 681 -22Z"/>
    <path transform="translate(195.18 126.00) scale(0.006104 -0.006104)" d="M786 -20Q588 -20 431.5 70.0Q275 160 184.5 331.0Q94 502 94 744Q94 987 185.0 1158.5Q276 1330 433.0 1420.0Q590 1510 786 1510Q913 1510 1022.5 1474.5Q1132 1439 1217.0 1371.0Q1302 1303 1356.0 1204.5Q1410 1106 1427 981H1118Q1108 1042 1079.5 1089.5Q1051 1137 1008.5 1170.5Q966 1204 911.0 1221.5Q856 1239 792 1239Q676 1239 588.0 1181.0Q500 1123 452.0 1012.5Q404 902 404 744Q404 583 453.0 473.0Q502 363 589.0 307.0Q676 251 791 251Q855 251 909.5 268.5Q964 286 1007.5 319.5Q1051 353 1079.5 401.0Q1108 449 1119 509H1428Q1416 406 1366.5 311.0Q1317 216 1235.0 141.0Q1153 66 1040.0 23.0Q927 -20 786 -20Z"/>
    <path transform="translate(207.43 126.00) scale(0.006104 -0.006104)" d="M135 0V1490H440V888H1089V1490H1395V0H1089V635H440V0Z"/>
    <path transform="translate(219.77 126.00) scale(0.006104 -0.006104)" d="M449 0 49 1490H382L555 757Q576 665 593.5 560.5Q611 456 628.0 350.5Q645 245 661 148H607Q625 245 643.0 350.5Q661 456 680.0 560.5Q699 665 722 757L904 1490H1221L1402 757Q1425 665 1444.0 560.5Q1463 456 1481.5 350.5Q1500 245 1518 148H1462Q1479 245 1495.5 350.5Q1512 456 1530.5 560.5Q1549 665 1569 757L1742 1490H2076L1675 0H1327L1129 762Q1097 889 1074.5 1037.5Q1052 1186 1024 1342H1100Q1069 1189 1049.5 1043.0Q1030 897 995 762L798 0Z"/>
    <path transform="translate(235.74 126.00) scale(0.006104 -0.006104)" d="M135 0V1490H1132V1237H440V877H1079V628H440V253H1134V0Z"/>
    <path transform="translate(246.33 126.00) scale(0.006104 -0.006104)" d="M440 1490V0H135V1490Z"/>
    <path transform="translate(252.84 126.00) scale(0.006104 -0.006104)" d="M115 0V183L719 1036Q775 1114 842.0 1192.5Q909 1271 977 1348L1000 1249Q900 1240 799.5 1238.5Q699 1237 599 1237H112V1490H1245V1306L652 468Q593 386 523.5 304.5Q454 223 383 142L360 241Q465 250 569.5 251.5Q674 253 778 253H1248V0Z"/>
    <path transform="translate(264.14 126.00) scale(0.006104 -0.006104)" d="M135 0V1490H1132V1237H440V877H1079V628H440V253H1134V0Z"/>
    <path transform="translate(274.74 126.00) scale(0.006104 -0.006104)" d="M135 0V1490H716Q886 1490 1005.0 1430.0Q1124 1370 1186.5 1261.0Q1249 1152 1249 1005Q1249 858 1185.5 751.5Q1122 645 1001.5 588.5Q881 532 709 532H315V779H660Q754 779 814.0 804.5Q874 830 904.0 880.5Q934 931 934 1005Q934 1081 904.0 1132.5Q874 1184 813.5 1211.0Q753 1238 659 1238H440V0ZM964 0 601 678H932L1302 0Z"/>
    <path transform="translate(291.91 126.00) scale(0.006104 -0.006104)" d="M360 337V615Q406 698 450.0 768.0Q494 838 547.0 908.5Q600 979 668 1062L1033 1490H1406L777 762L752 771ZM135 0V1490H440V1083L434 703L440 554V0ZM1061 0 619 672 812 900 1422 0Z"/>
    <path transform="translate(303.90 126.00) scale(0.006104 -0.006104)" d="M440 1490V0H135V1490Z"/>
    <path transform="translate(310.41 126.00) scale(0.006104 -0.006104)" d="M818 732V493H140V732Z"/>
    <path transform="translate(319.25 126.00) scale(0.006104 -0.006104)" d="M75 1237V1490H1292V1237H837V0H531V1237Z"/>
    <path transform="translate(330.60 126.00) scale(0.006104 -0.006104)" d="M135 0V1490H1132V1237H440V877H1079V628H440V253H1134V0Z"/>
    <path transform="translate(341.19 126.00) scale(0.006104 -0.006104)" d="M135 0V1490H440V253H1083V0Z"/>
    <path transform="translate(351.26 126.00) scale(0.006104 -0.006104)" d="M135 0V1490H1132V1237H440V877H1079V628H440V253H1134V0Z"/>
    <path transform="translate(361.85 126.00) scale(0.006104 -0.006104)" d="M135 0V1490H1115V1237H440V821H1049V572H440V0Z"/>
    <path transform="translate(372.19 126.00) scale(0.006104 -0.006104)" d="M789 -20Q592 -20 434.5 70.0Q277 160 185.5 331.0Q94 502 94 744Q94 987 185.5 1158.5Q277 1330 434.5 1420.0Q592 1510 789 1510Q987 1510 1144.0 1420.0Q1301 1330 1392.5 1158.5Q1484 987 1484 744Q1484 502 1392.5 331.0Q1301 160 1144.0 70.0Q987 -20 789 -20ZM789 251Q905 251 991.5 307.5Q1078 364 1126.0 474.5Q1174 585 1174 744Q1174 905 1126.0 1015.5Q1078 1126 991.5 1182.5Q905 1239 789 1239Q674 1239 587.0 1182.0Q500 1125 452.0 1014.5Q404 904 404 744Q404 585 452.0 475.0Q500 365 587.0 308.0Q674 251 789 251Z"/>
    <path transform="translate(384.82 126.00) scale(0.006104 -0.006104)" d="M135 0V1490H475L946 736Q982 678 1019.0 610.0Q1056 542 1094.5 459.0Q1133 376 1171 272H1140Q1133 355 1127.5 449.0Q1122 543 1118.0 629.0Q1114 715 1114 775V1490H1426V0H1085L657 684Q610 761 570.0 833.5Q530 906 486.5 994.0Q443 1082 383 1203H422Q428 1095 434.0 996.0Q440 897 443.5 816.5Q447 736 447 685V0Z"/>
    <path transform="translate(397.34 126.00) scale(0.006104 -0.006104)" d="M135 0V1490H716Q886 1490 1005.0 1430.0Q1124 1370 1186.5 1261.0Q1249 1152 1249 1005Q1249 858 1185.5 751.5Q1122 645 1001.5 588.5Q881 532 709 532H315V779H660Q754 779 814.0 804.5Q874 830 904.0 880.5Q934 931 934 1005Q934 1081 904.0 1132.5Q874 1184 813.5 1211.0Q753 1238 659 1238H440V0ZM964 0 601 678H932L1302 0Z"/>
    <path transform="translate(408.55 126.00) scale(0.006104 -0.006104)" d="M135 0V1490H1132V1237H440V877H1079V628H440V253H1134V0Z"/>
    <path transform="translate(419.15 126.00) scale(0.006104 -0.006104)" d="M115 0V183L719 1036Q775 1114 842.0 1192.5Q909 1271 977 1348L1000 1249Q900 1240 799.5 1238.5Q699 1237 599 1237H112V1490H1245V1306L652 468Q593 386 523.5 304.5Q454 223 383 142L360 241Q465 250 569.5 251.5Q674 253 778 253H1248V0Z"/>
    <path transform="translate(430.45 126.00) scale(0.006104 -0.006104)" d="M135 0V1490H1132V1237H440V877H1079V628H440V253H1134V0Z"/>
    <path transform="translate(441.04 126.00) scale(0.006104 -0.006104)" d="M135 0V1490H716Q886 1490 1005.0 1425.5Q1124 1361 1186.5 1247.5Q1249 1134 1249 987Q1249 839 1185.5 726.5Q1122 614 1001.5 550.5Q881 487 709 487H335V733H660Q754 733 814.5 765.5Q875 798 904.5 855.0Q934 912 934 987Q934 1062 904.5 1119.0Q875 1176 814.0 1207.0Q753 1238 659 1238H440V0Z"/>
    <path transform="translate(452.14 126.00) scale(0.006104 -0.006104)" d="M75 1237V1490H1292V1237H837V0H531V1237Z"/>
    <path transform="translate(463.48 126.00) scale(0.006104 -0.006104)" d="M440 1490V0H135V1490Z"/>
    <path transform="translate(469.99 126.00) scale(0.006104 -0.006104)" d="M789 -20Q592 -20 434.5 70.0Q277 160 185.5 331.0Q94 502 94 744Q94 987 185.5 1158.5Q277 1330 434.5 1420.0Q592 1510 789 1510Q987 1510 1144.0 1420.0Q1301 1330 1392.5 1158.5Q1484 987 1484 744Q1484 502 1392.5 331.0Q1301 160 1144.0 70.0Q987 -20 789 -20ZM789 251Q905 251 991.5 307.5Q1078 364 1126.0 474.5Q1174 585 1174 744Q1174 905 1126.0 1015.5Q1078 1126 991.5 1182.5Q905 1239 789 1239Q674 1239 587.0 1182.0Q500 1125 452.0 1014.5Q404 904 404 744Q404 585 452.0 475.0Q500 365 587.0 308.0Q674 251 789 251Z"/>
    <path transform="translate(482.62 126.00) scale(0.006104 -0.006104)" d="M135 0V1490H475L946 736Q982 678 1019.0 610.0Q1056 542 1094.5 459.0Q1133 376 1171 272H1140Q1133 355 1127.5 449.0Q1122 543 1118.0 629.0Q1114 715 1114 775V1490H1426V0H1085L657 684Q610 761 570.0 833.5Q530 906 486.5 994.0Q443 1082 383 1203H422Q428 1095 434.0 996.0Q440 897 443.5 816.5Q447 736 447 685V0Z"/>
  </g>
</svg>
