<svg xmlns="http://www.w3.org/2000/svg" viewBox="262 69 682 857" preserveAspectRatio="xMidYMid meet" role="img" aria-label="Colomba — Origami-Taube">
<title>Colomba</title>
<desc>Vektor-Master der Origami-Taube. Nachgezeichnet aus colomba/design/social/source/colomba-avatar-v2-1024.jpg: Vordergrund per Flutfuellung vom Rand, acht Facetten per k-means im Lab-Raum, Konturen als Polygone (approxPolyDP) — keine Bezier-Kurven, weil Origami keine hat. Farbwerte aus dem Bild gemessen, nicht gesetzt. MaxOps Labs, 2026-08-29.</desc>
<path fill="#9B9474" d="M302,81 420,218 274,174 470,432 527,607 483,681 284,781 394,813 315,913 434,845 513,666 610,715 550,775 696,727 735,650 824,605 863,482 818,496 884,433 931,445 876,381 812,379 721,449 650,302Z"/>
<path fill="#E3C6A8" d="M754,524 657,580 665,594 656,597 638,620 632,618 611,718 664,693 735,650Z M438,390 549,546 560,555 600,473 581,468 591,462 591,456 532,426 512,421 493,407 468,401 453,403Z M813,379 813,382 874,420 895,416 897,418 894,424 885,430 885,433 923,445 931,445 901,418 876,381Z M556,267 556,271 644,303 651,307 654,315 658,315 654,306 644,297 593,262 593,266 599,271 595,275 588,276Z"/>
<path fill="#C1B08F" d="M581,511 577,511 575,519 579,520 572,521 560,546 556,549 555,545 551,545 555,556 531,613 532,622 542,620 604,589 599,574 600,538 597,526 589,518 580,520Z M742,490 738,494 751,521 640,582 614,702 620,695 635,624 669,597 661,583 748,532 753,537 748,532 754,531 756,518Z M412,356 465,426 455,406 489,410 508,424 585,457 577,471 593,477 592,486 596,486 605,467 599,458 601,451 516,404Z M304,83 417,214 415,222 647,304 661,322 650,302 616,278 617,289 593,280 612,275Z"/>
<path fill="#9B9474" d="M753,523 707,545 705,540 696,542 696,546 704,546 642,578 638,591 651,584 653,579 752,528Z M596,479 591,484 563,543 568,542 578,525 587,522 592,526 597,542 596,578 599,591 611,587 611,583 606,581 608,495 604,482Z M410,354 426,374 423,366 512,407 592,451 601,465 598,475 602,475 607,458 596,444 470,379Z M275,173 408,349 435,239 444,228 421,219 421,213 417,220Z"/>
<path fill="#CB734F" d="M500,688 479,700 315,913 434,845Z M467,688 284,781 347,798 319,781 407,770 445,724Z M896,411 875,416 812,379 727,447 805,436 744,465 758,507 750,514 734,651 824,605 862,489 818,496 884,433 895,436Z"/>
<path fill="#828063" d="M734,651 611,715 611,719 684,728 696,727 702,721 705,708Z M593,486 601,486 605,499 603,589 650,569 639,586 653,582 657,574 751,528 751,524 740,528 733,521 684,508 622,502 617,508 610,470 600,467Z M407,351 418,364 540,419 599,452 597,457 608,462 607,448 536,411 542,410 551,393 552,376 541,376 534,394 525,390 506,396Z M435,227 405,348 433,346 428,337 448,325 435,345 648,308 623,470 752,519 725,456 731,443 719,447 650,302Z"/>
<path fill="#AA5837" d="M641,590 550,631 528,628 506,669 430,707 457,698 403,767 316,777 318,788 290,781 300,773 285,782 390,810 389,824 494,693 489,725 513,666 614,718Z M751,549 747,549 732,651 727,653 720,677 735,650 765,635 737,646 752,569Z M804,431 799,431 798,436 797,432 729,445 721,450 724,463 752,521 757,521 760,515 761,500 758,486 748,467 765,454 787,452 801,446 809,439 809,435Z M867,427 864,424 854,424 853,425 846,425 841,427 831,427 820,429 814,432 814,441 817,446 820,448 839,448 851,443 858,438 865,436 867,434Z"/>
<path fill="#69654B" d="M699,723 669,723 626,717 622,713 610,715 611,718 549,774 696,727Z M467,428 504,539 516,550 518,568 513,564 526,613 534,619 557,558 549,568 500,480 507,487 511,483Z M404,346 599,449 614,512 644,506 733,527 633,576 653,581 755,525 706,498 740,518 626,480 632,432 622,461 610,456 638,319 411,350 422,344Z M610,274 648,302 638,306 638,310 647,309 631,405 629,430 633,430 651,314 657,319 659,317 650,302Z"/>
<path fill="#4D4029" d="M430,380 470,432 493,504 479,451 550,577 558,550Z M652,304 399,339 428,377 430,354 634,322 612,441 445,371 598,446 622,483 741,526 527,607 440,828 532,631 639,601 654,567 742,528 751,557 755,519 626,466Z"/>
</svg>
